<mxfile host="app.diagrams.net" agent="Mozilla/5.0 (Windows NT 10.0; Win64; x64) AppleWebKit/537.36 (KHTML, like Gecko) Chrome/141.0.0.0 Safari/537.36 Edg/141.0.0.0" version="28.2.5">
  <diagram name="Página-1" id="9XiEAYyIDjaYyXeT1-S3">
    <mxGraphModel dx="1204" dy="661" grid="1" gridSize="10" guides="1" tooltips="1" connect="1" arrows="1" fold="1" page="1" pageScale="1" pageWidth="827" pageHeight="1169" math="0" shadow="0">
      <root>
        <mxCell id="0" />
        <mxCell id="1" parent="0" />
        <mxCell id="WVUqpbFxp66bCRPRu-xf-1" value="Paciente" style="whiteSpace=wrap;html=1;align=center;" parent="1" vertex="1">
          <mxGeometry y="415" width="100" height="40" as="geometry" />
        </mxCell>
        <mxCell id="WVUqpbFxp66bCRPRu-xf-2" value="Médico Solicitante" style="whiteSpace=wrap;html=1;align=center;" parent="1" vertex="1">
          <mxGeometry x="727" y="415" width="100" height="40" as="geometry" />
        </mxCell>
        <mxCell id="WVUqpbFxp66bCRPRu-xf-3" value="Médico Radiologista" style="whiteSpace=wrap;html=1;align=center;" parent="1" vertex="1">
          <mxGeometry x="364" y="120" width="100" height="40" as="geometry" />
        </mxCell>
        <mxCell id="WVUqpbFxp66bCRPRu-xf-4" value="Exame" style="whiteSpace=wrap;html=1;align=center;" parent="1" vertex="1">
          <mxGeometry x="364" y="415" width="100" height="40" as="geometry" />
        </mxCell>
        <mxCell id="WVUqpbFxp66bCRPRu-xf-5" value="Convenio" style="whiteSpace=wrap;html=1;align=center;" parent="1" vertex="1">
          <mxGeometry x="110" y="160" width="100" height="40" as="geometry" />
        </mxCell>
        <mxCell id="WVUqpbFxp66bCRPRu-xf-6" value="Laudo" style="whiteSpace=wrap;html=1;align=center;" parent="1" vertex="1">
          <mxGeometry x="364" y="260" width="100" height="40" as="geometry" />
        </mxCell>
        <mxCell id="WVUqpbFxp66bCRPRu-xf-8" value="Realiza" style="shape=rhombus;perimeter=rhombusPerimeter;whiteSpace=wrap;html=1;align=center;" parent="1" vertex="1">
          <mxGeometry x="190" y="410" width="80" height="50" as="geometry" />
        </mxCell>
        <mxCell id="Y5SOhLk5kEH37UTc9Dix-1" value="" style="edgeStyle=entityRelationEdgeStyle;fontSize=12;html=1;endArrow=ERoneToMany;rounded=0;entryX=0;entryY=0.5;entryDx=0;entryDy=0;exitX=1;exitY=0.5;exitDx=0;exitDy=0;" edge="1" parent="1" source="WVUqpbFxp66bCRPRu-xf-8" target="WVUqpbFxp66bCRPRu-xf-4">
          <mxGeometry width="100" height="100" relative="1" as="geometry">
            <mxPoint x="360" y="725" as="sourcePoint" />
            <mxPoint x="460" y="625" as="targetPoint" />
          </mxGeometry>
        </mxCell>
        <mxCell id="Y5SOhLk5kEH37UTc9Dix-2" value="(1,n)" style="edgeLabel;html=1;align=center;verticalAlign=middle;resizable=0;points=[];" vertex="1" connectable="0" parent="Y5SOhLk5kEH37UTc9Dix-1">
          <mxGeometry x="-0.2199" y="-3" relative="1" as="geometry">
            <mxPoint y="-3" as="offset" />
          </mxGeometry>
        </mxCell>
        <mxCell id="Y5SOhLk5kEH37UTc9Dix-3" value="" style="edgeStyle=entityRelationEdgeStyle;fontSize=12;html=1;endArrow=ERmandOne;startArrow=ERmandOne;rounded=0;entryX=0;entryY=0.5;entryDx=0;entryDy=0;exitX=1;exitY=0.5;exitDx=0;exitDy=0;" edge="1" parent="1" source="WVUqpbFxp66bCRPRu-xf-1" target="WVUqpbFxp66bCRPRu-xf-8">
          <mxGeometry width="100" height="100" relative="1" as="geometry">
            <mxPoint x="360" y="725" as="sourcePoint" />
            <mxPoint x="460" y="625" as="targetPoint" />
          </mxGeometry>
        </mxCell>
        <mxCell id="Y5SOhLk5kEH37UTc9Dix-4" value="(1,1)" style="edgeLabel;html=1;align=center;verticalAlign=middle;resizable=0;points=[];" vertex="1" connectable="0" parent="Y5SOhLk5kEH37UTc9Dix-3">
          <mxGeometry x="0.0148" y="-1" relative="1" as="geometry">
            <mxPoint as="offset" />
          </mxGeometry>
        </mxCell>
        <mxCell id="Y5SOhLk5kEH37UTc9Dix-5" value="Solicita" style="shape=rhombus;perimeter=rhombusPerimeter;whiteSpace=wrap;html=1;align=center;" vertex="1" parent="1">
          <mxGeometry x="560" y="410" width="80" height="50" as="geometry" />
        </mxCell>
        <mxCell id="Y5SOhLk5kEH37UTc9Dix-6" value="" style="edgeStyle=entityRelationEdgeStyle;fontSize=12;html=1;endArrow=ERoneToMany;rounded=0;entryX=1;entryY=0.5;entryDx=0;entryDy=0;exitX=0;exitY=0.5;exitDx=0;exitDy=0;" edge="1" parent="1" source="Y5SOhLk5kEH37UTc9Dix-5" target="WVUqpbFxp66bCRPRu-xf-4">
          <mxGeometry width="100" height="100" relative="1" as="geometry">
            <mxPoint x="360" y="725" as="sourcePoint" />
            <mxPoint x="460" y="625" as="targetPoint" />
          </mxGeometry>
        </mxCell>
        <mxCell id="Y5SOhLk5kEH37UTc9Dix-7" value="(1,n)" style="edgeLabel;html=1;align=center;verticalAlign=middle;resizable=0;points=[];" vertex="1" connectable="0" parent="Y5SOhLk5kEH37UTc9Dix-6">
          <mxGeometry x="-0.0764" relative="1" as="geometry">
            <mxPoint as="offset" />
          </mxGeometry>
        </mxCell>
        <mxCell id="Y5SOhLk5kEH37UTc9Dix-8" value="" style="edgeStyle=entityRelationEdgeStyle;fontSize=12;html=1;endArrow=ERmandOne;startArrow=ERmandOne;rounded=0;entryX=0;entryY=0.5;entryDx=0;entryDy=0;exitX=1;exitY=0.5;exitDx=0;exitDy=0;" edge="1" parent="1" source="Y5SOhLk5kEH37UTc9Dix-5" target="WVUqpbFxp66bCRPRu-xf-2">
          <mxGeometry width="100" height="100" relative="1" as="geometry">
            <mxPoint x="360" y="725" as="sourcePoint" />
            <mxPoint x="460" y="625" as="targetPoint" />
          </mxGeometry>
        </mxCell>
        <mxCell id="Y5SOhLk5kEH37UTc9Dix-9" value="(1,1)" style="edgeLabel;html=1;align=center;verticalAlign=middle;resizable=0;points=[];" vertex="1" connectable="0" parent="Y5SOhLk5kEH37UTc9Dix-8">
          <mxGeometry x="-0.1801" y="-1" relative="1" as="geometry">
            <mxPoint as="offset" />
          </mxGeometry>
        </mxCell>
      </root>
    </mxGraphModel>
  </diagram>
</mxfile>
